<?xml version="1.0" encoding="utf-8"?> <svg version="1.1" xmlns="http://www.w3.org/2000/svg" viewBox="0 0 100 100"> <g transform="translate(100 40) scale(-1)"> <path d="M20.5,26.6l-10,-0.1l-2,-2h-2v-14h1.8c0,-2 3,-3.9 9,-3 c0,-0.5 3.5,2.9 3.5,2.9" stroke-linecap="round" stroke-linejoin="round" stroke="#000" fill="#fff"/> <rect x="0.5" y="9.5" rx="1" ry="1" width="6" height="16" stroke-width="1" stroke="#000" fill="#FF0000"/> </g> <g transform="translate(0 40) scale(1,-1)"> <path d="M20.5,26.6l-10,-0.1l-2,-2h-2v-14h1.8c0,-2 3,-3.9 9,-3 c0,-0.5 3.5,2.9 3.5,2.9" stroke-linecap="round" stroke-linejoin="round" stroke="#000" fill="#fff"/> <rect x="0.5" y="9.5" rx="1" ry="1" width="6" height="16" stroke-width="1" stroke="#000" fill="#0000FF"/> </g> <g transform="translate(100 60) scale(-1,1)"> <path d="M20.5,26.6l-10,-0.1l-2,-2h-2v-14h1.8c0,-2 3,-3.9 9,-3 c0,-0.5 3.5,2.9 3.5,2.9" stroke-linecap="round" stroke-linejoin="round" stroke="#000" fill="#fff"/> <rect x="0.5" y="9.5" rx="1" ry="1" width="6" height="16" stroke-width="1" stroke="#000" fill="#FF0000"/> </g> <g transform="translate(0 60)"> <path d="M20.5,26.6l-10,-0.1l-2,-2h-2v-14h1.8c0,-2 3,-3.9 9,-3 c0,-0.5 3.5,2.9 3.5,2.9" stroke-linecap="round" stroke-linejoin="round" stroke="#000" fill="#fff"/> <rect x="0.5" y="9.5" rx="1" ry="1" width="6" height="16" stroke-width="1" stroke="#000" fill="#0000FF"/> </g> </svg>