<?xml version="1.0" encoding="utf-8"?>
<svg version="1.1" xmlns="http://www.w3.org/2000/svg" viewBox="0 -37.5 175 175">
    <defs><g id="x"><rect x="0" y="0" width="25" height="25" fill="#784A10"/><rect x="0.5" y="0.5" width="24" height="24" fill="#7A553B"/></g></defs>
    <use href="#x" x="0" y="0"/><use href="#x" x="0" y="25"/><use href="#x" x="25" y="25"/>
    <use href="#x" x="50" y="25"/><use href="#x" x="75" y="25"/><use href="#x" x="0" y="50"/>
    <use href="#x" x="25" y="50"/><use href="#x" x="50" y="50"/><use href="#x" x="75" y="50"/>
    <use href="#x" x="100" y="50"/><use href="#x" x="125" y="50"/><use href="#x" x="0" y="75"/>
    <use href="#x" x="25" y="75"/><use href="#x" x="50" y="75"/><use href="#x" x="75" y="75"/>
    <use href="#x" x="100" y="75"/><use href="#x" x="125" y="75"/><use href="#x" x="150" y="75"/><use href="#x" x="175" y="75"/>
    <g transform="translate(0 75)">
        <circle cx="12.5" cy="12.5" r="10" fill="none" stroke-width="2" stroke="#784A10"/>
        <line x1="5.42893218813" y1="5.42893218813" x2="19.5710678119" y2="19.5710678119" stroke-width="2" stroke="#784A10"/></g>
    <g stroke="none">
    <circle cx="62.5" cy="87.5" r="3.0" fill="#008000"/><circle cx="12.5" cy="37.5" r="3.0" fill="#008000" opacity="0.75" /><circle cx="12.5" cy="12.5" r="3.0" fill="#800000"/><circle cx="37.5" cy="37.5" r="3.0" fill="#800000" opacity="0.75" /><circle cx="62.5" cy="37.5" r="3.0" fill="#800000" opacity="0.75" /><circle cx="87.5" cy="37.5" r="3.0" fill="#800000" opacity="0.75" /><circle cx="37.5" cy="62.5" r="3.0" fill="#800000" opacity="0.75" /><circle cx="62.5" cy="62.5" r="3.0" fill="#800000" opacity="0.75" /><circle cx="87.5" cy="62.5" r="3.0" fill="#800000" opacity="0.75" /><circle cx="112.5" cy="62.5" r="3.0" fill="#800000" opacity="0.75" /><circle cx="137.5" cy="62.5" r="3.0" fill="#800000" opacity="0.75" /><circle cx="87.5" cy="87.5" r="3.0" fill="#800000" opacity="0.75" /><circle cx="112.5" cy="87.5" r="3.0" fill="#800000" opacity="0.75" /><circle cx="137.5" cy="87.5" r="3.0" fill="#800000" opacity="0.75" /><circle cx="162.5" cy="87.5" r="3.0" fill="#800000" opacity="0.75" /><circle cx="12.5" cy="62.5" r="3.0" fill="#800000" opacity="0.5" /><circle cx="37.5" cy="87.5" r="3.0" fill="#800000"/>    
    </g>
</svg>