<svg version="1.1" id="BackgroundSVG" xmlns="http://www.w3.org/2000/svg" viewBox="0 0 5 5">
    <path d="M0.5,0 h4 v5 h-4 z" stroke="none" fill="#FEC595"/>
    <path d="M0.5,0 h1 v1 h-1 z M2.5,0 h1 v1 h-1 z M1.5,1 h1 v1 h-1 z M3.5,1 h1 v1 h-1 z M0.5,2 h1 v1 h-1 z M2.5,2 h1 v1 h-1 z M1.5,3 h1 v1 h-1 z M3.5,3 h1 v1 h-1 z M0.5,4 h1 v1 h-1 z M2.5,4 h1 v1 h-1 z" stroke="none" fill="#C97D41"/>
    <path d="M0.5,0 v5 M1.5,0 v5 M2.5,0 v5 M3.5,0 v5 M4.5,0 v5
    M0.5,1 h4 M0.5,2 h4 M0.5,3 h4 M0.5,4 h4" stroke="#444444" stroke-width="0.01"/>
    <path d="M0.5,0 h4 M0.5,5 h4" stroke="#444444" stroke-width="0.02"/>
</svg>