<svg xmlns="http://www.w3.org/2000/svg" id="Layer_1" x="0" y="0" version="1.1" viewBox="0 0 29 29" xml:space="preserve"><path d="M14.5 27C7.607 27 2 21.393 2 14.5S7.607 2 14.5 2 27 7.607 27 14.5 21.393 27 14.5 27zm0-23C8.71 4 4 8.71 4 14.5S8.71 25 14.5 25 25 20.29 25 14.5 20.29 4 14.5 4zm2.436 16.278c-.317 0-.634-.084-.915-.252l-6.709-3.992c-.546-.326-.872-.899-.872-1.534s.325-1.208.87-1.533l6.711-3.995a1.786 1.786 0 0 1 2.698 1.534v7.987a1.79 1.79 0 0 1-.904 1.553 1.776 1.776 0 0 1-.879.232zM10.645 14.5l6.075 3.615v-7.231L10.645 14.5z"/></svg>